<svg width="24" height="24" viewBox="0 0 24 24" fill="none" xmlns="http://www.w3.org/2000/svg"><path d="M12 24c6.627 0 12-5.373 12-12S18.627 0 12 0 0 5.373 0 12s5.373 12 12 12Z" fill="#2A86F3"/><g clip-path="url(#a)" fill="#fff"><path d="M13.947 4.846h-3.884V6.14h3.884V4.846Zm2.61 4.13.919-.92a7.158 7.158 0 0 0-.913-.912l-.92.92a5.802 5.802 0 0 0-3.638-1.283 5.827 5.827 0 1 0 5.827 5.827 5.83 5.83 0 0 0-1.276-3.632Zm-4.552 8.17a4.528 4.528 0 0 1-4.532-4.532 4.528 4.528 0 0 1 4.532-4.531 4.528 4.528 0 0 1 4.532 4.531 4.528 4.528 0 0 1-4.532 4.532Z"/><path d="M13.246 10.851c.128.148.227.325.276.542h.699v.59h-.66c-.03.354-.167.64-.384.876a1.62 1.62 0 0 1-.876.443.97.97 0 0 1 .394.187c.118.088.226.216.335.374l1.092 1.624H12.99l-1.102-1.663a1.041 1.041 0 0 0-.315-.335c-.108-.069-.256-.099-.433-.099h-1.053v-.738h1.565c.285 0 .512-.059.679-.167.167-.108.266-.275.305-.502h-2.54v-.59h2.51a.634.634 0 0 0-.324-.404c-.158-.089-.374-.138-.63-.138h-1.565v-.59h4.134v.59h-.975Z"/></g><path d="M12 24c6.627 0 12-5.373 12-12S18.627 0 12 0 0 5.373 0 12s5.373 12 12 12Z" fill="#3987F0"/><path d="m8.248 12.912 3.61-6.298c.179-.311.655-.163.625.194l-.302 3.581h3.284c.257 0 .418.277.291.5l-3.68 6.494c-.177.312-.654.166-.626-.191l.3-3.778H8.537a.335.335 0 0 1-.29-.502Z" stroke="#fff"/><defs><clipPath id="a"><path fill="#fff" transform="translate(4.19 4.191)" d="M0 0h15.537v15.537H0z"/></clipPath></defs></svg>