<svg width="24" height="24" viewBox="0 0 24 24" fill="none" xmlns="http://www.w3.org/2000/svg"><path d="M12 24c6.627 0 12-5.373 12-12S18.627 0 12 0 0 5.373 0 12s5.373 12 12 12Z" fill="#2A86F3"/><rect x="8.25" y="6.75" width="11.25" height="6" rx="3" stroke="#fff" stroke-width="1.125"/><path fill-rule="evenodd" clip-rule="evenodd" d="M8.562 9.938H8.25a3.563 3.563 0 0 0 0 7.124h5.25a3.563 3.563 0 0 0 3.487-4.296c-.137.026-.278.04-.422.04h-.728a2.437 2.437 0 0 1-2.337 3.132H8.25a2.437 2.437 0 1 1 0-4.876h.37a2.257 2.257 0 0 1-.058-.506v-.618Z" fill="#fff"/></svg>
